<svg width="500" height="400" viewBox="0 0 500 400" xmlns="http://www.w3.org/2000/svg">
  <!-- Background -->
  <defs>
    <linearGradient id="bg" x1="0%" y1="0%" x2="100%" y2="100%">
      <stop offset="0%" style="stop-color:#3498db;stop-opacity:1" />
      <stop offset="100%" style="stop-color:#2c3e50;stop-opacity:1" />
    </linearGradient>
  </defs>
  <rect width="100%" height="100%" fill="url(#bg)" rx="20"/>
  
  <!-- House -->
  <polygon points="250,80 180,140 320,140" fill="#e74c3c"/>
  <rect x="200" y="140" width="100" height="80" fill="#f39c12"/>
  <rect x="220" y="160" width="20" height="30" fill="#8b4513"/>
  <rect x="260" y="160" width="20" height="20" fill="#87ceeb"/>
  
  <!-- Family figures -->
  <circle cx="150" cy="180" r="15" fill="#f4c2a1"/>
  <rect x="140" y="195" width="20" height="30" fill="#e74c3c"/>
  
  <circle cx="180" cy="175" r="12" fill="#f4c2a1"/>
  <rect x="172" y="187" width="16" height="25" fill="#3498db"/>
  
  <circle cx="350" cy="180" r="15" fill="#f4c2a1"/>
  <rect x="340" y="195" width="20" height="30" fill="#27ae60"/>
  
  <circle cx="380" cy="175" r="12" fill="#f4c2a1"/>
  <rect x="372" y="187" width="16" height="25" fill="#9b59b6"/>
  
  <!-- Text -->
  <text x="250" y="280" text-anchor="middle" fill="white" font-family="Arial, sans-serif" font-size="24" font-weight="bold">Happy Family</text>
  <text x="250" y="310" text-anchor="middle" fill="white" font-family="Arial, sans-serif" font-size="20">Saved from Foreclosure</text>
  
  <!-- Checkmark -->
  <circle cx="250" cy="340" r="25" fill="#27ae60"/>
  <path d="M235,340 L245,350 L265,330" stroke="white" stroke-width="4" fill="none" stroke-linecap="round"/>
</svg>