<svg width="400" height="250" viewBox="0 0 400 250" xmlns="http://www.w3.org/2000/svg">
  <!-- Professional team/office setting -->
  <defs>
    <linearGradient id="officeWall" x1="0%" y1="0%" x2="100%" y2="0%">
      <stop offset="0%" style="stop-color:#E8E8E8;stop-opacity:1" />
      <stop offset="100%" style="stop-color:#F5F5F5;stop-opacity:1" />
    </linearGradient>
  </defs>
  
  <!-- Office background -->
  <rect width="100%" height="100%" fill="url(#officeWall)"/>
  
  <!-- Professional certificates/awards on wall -->
  <rect x="50" y="30" width="40" height="30" fill="#FFFFFF" stroke="#C0C0C0" stroke-width="1" rx="2"/>
  <rect x="100" y="30" width="40" height="30" fill="#FFFFFF" stroke="#C0C0C0" stroke-width="1" rx="2"/>
  <rect x="150" y="30" width="40" height="30" fill="#FFFFFF" stroke="#C0C0C0" stroke-width="1" rx="2"/>
  
  <!-- Desk -->
  <rect x="100" y="150" width="200" height="60" fill="#8B4513" rx="5"/>
  
  <!-- Professional figure 1 -->
  <circle cx="180" cy="120" r="20" fill="#DDB892"/>
  <rect x="170" y="140" width="20" height="35" fill="#2C3E50"/>
  <rect x="165" y="145" width="30" height="10" fill="#FFFFFF"/>
  
  <!-- Professional figure 2 -->
  <circle cx="220" cy="115" r="18" fill="#F4C2A1"/>
  <rect x="212" y="133" width="16" height="30" fill="#800080"/>
  <rect x="208" y="138" width="24" height="8" fill="#FFFFFF"/>
  
  <!-- California state license display -->
  <rect x="250" y="40" width="60" height="40" fill="#FFD700" stroke="#B8860B" stroke-width="2" rx="3"/>
  <text x="280" y="55" text-anchor="middle" fill="#B8860B" font-family="Arial" font-size="10" font-weight="bold">CA DRE</text>
  <text x="280" y="67" text-anchor="middle" fill="#B8860B" font-family="Arial" font-size="8">#02076038</text>
  
  <!-- Success metrics display -->
  <rect x="320" y="80" width="60" height="50" fill="#27AE60" rx="5"/>
  <text x="350" y="100" text-anchor="middle" fill="white" font-family="Arial" font-size="14" font-weight="bold">200+</text>
  <text x="350" y="115" text-anchor="middle" fill="white" font-family="Arial" font-size="10">Families</text>
  <text x="350" y="125" text-anchor="middle" fill="white" font-family="Arial" font-size="10">Helped</text>
  
  <!-- Years in business -->
  <circle cx="50" cy="180" r="25" fill="#3498DB"/>
  <text x="50" y="180" text-anchor="middle" fill="white" font-family="Arial" font-size="16" font-weight="bold">10+</text>
  <text x="50" y="215" text-anchor="middle" fill="#2C3E50" font-family="Arial" font-size="12">Years</text>
</svg>