<svg width="300" height="300" viewBox="0 0 300 300" xmlns="http://www.w3.org/2000/svg">
  <!-- Photorealistic Man Portrait -->
  <defs>
    <!-- Realistic skin tone for man -->
    <radialGradient id="manSkin" cx="40%" cy="30%" r="70%">
      <stop offset="0%" style="stop-color:#E8C5A0;stop-opacity:1" />
      <stop offset="40%" style="stop-color:#D4A574;stop-opacity:1" />
      <stop offset="80%" style="stop-color:#C19660;stop-opacity:1" />
      <stop offset="100%" style="stop-color:#A67C52;stop-opacity:1" />
    </radialGradient>
    
    <!-- Dark hair with realistic texture -->
    <linearGradient id="darkHair" x1="0%" y1="0%" x2="0%" y2="100%">
      <stop offset="0%" style="stop-color:#2F2F2F;stop-opacity:1" />
      <stop offset="50%" style="stop-color:#1C1C1C;stop-opacity:1" />
      <stop offset="100%" style="stop-color:#0A0A0A;stop-opacity:1" />
    </linearGradient>
    
    <!-- Eye colors for brown eyes -->
    <radialGradient id="brownEyes" cx="30%" cy="40%" r="50%">
      <stop offset="0%" style="stop-color:#D2691E;stop-opacity:1" />
      <stop offset="50%" style="stop-color:#8B4513;stop-opacity:1" />
      <stop offset="100%" style="stop-color:#654321;stop-opacity:1" />
    </radialGradient>
    
    <!-- Business shirt -->
    <linearGradient id="businessShirt" x1="0%" y1="0%" x2="0%" y2="100%">
      <stop offset="0%" style="stop-color:#4169E1;stop-opacity:1" />
      <stop offset="100%" style="stop-color:#1E3A8A;stop-opacity:1" />
    </linearGradient>
    
    <!-- Professional background -->
    <radialGradient id="profBg" cx="50%" cy="50%" r="60%">
      <stop offset="0%" style="stop-color:#F0F8FF;stop-opacity:1" />
      <stop offset="100%" style="stop-color:#E6F3FF;stop-opacity:1" />
    </radialGradient>
    
    <!-- 5 o'clock shadow -->
    <radialGradient id="stubble" cx="50%" cy="60%" r="40%">
      <stop offset="0%" style="stop-color:#2F2F2F;stop-opacity:0" />
      <stop offset="80%" style="stop-color:#2F2F2F;stop-opacity:0.1" />
      <stop offset="100%" style="stop-color:#2F2F2F;stop-opacity:0.2" />
    </radialGradient>
  </defs>
  
  <!-- Professional background -->
  <rect width="100%" height="100%" fill="url(#profBg)"/>
  
  <!-- Shoulders and neck -->
  <ellipse cx="150" cy="270" rx="65" ry="35" fill="url(#manSkin)"/>
  
  <!-- Business shirt with collar -->
  <path d="M85,250 Q150,230 215,250 L215,300 L85,300 Z" fill="url(#businessShirt)"/>
  <path d="M115,245 Q150,235 185,245 L180,260 Q150,250 120,260 Z" fill="#FFFFFF"/>
  
  <!-- Tie -->
  <polygon points="150,235 155,255 150,275 145,255" fill="#8B0000"/>
  <rect x="148" y="240" width="4" height="30" fill="#A0522D" opacity="0.3"/>
  
  <!-- Face with realistic proportions -->
  <ellipse cx="150" cy="140" rx="50" ry="60" fill="url(#manSkin)"/>
  
  <!-- 5 o'clock shadow -->
  <ellipse cx="150" cy="165" rx="35" ry="25" fill="url(#stubble)"/>
  
  <!-- Face contours -->
  <ellipse cx="125" cy="135" rx="10" ry="18" fill="#C19660" opacity="0.3"/>
  <ellipse cx="175" cy="135" rx="10" ry="18" fill="#C19660" opacity="0.3"/>
  <ellipse cx="150" cy="175" rx="15" ry="10" fill="#C19660" opacity="0.2"/>
  
  <!-- Short professional haircut -->
  <path d="M100,120 Q150,60 200,120 Q195,85 180,75 Q150,60 120,75 Q105,85 100,120" fill="url(#darkHair)"/>
  <!-- Hair texture -->
  <path d="M110,95 Q125,90 140,95" stroke="#1C1C1C" stroke-width="1" fill="none" opacity="0.5"/>
  <path d="M160,95 Q175,90 190,95" stroke="#1C1C1C" stroke-width="1" fill="none" opacity="0.5"/>
  <path d="M125,105 Q140,100 155,105" stroke="#1C1C1C" stroke-width="1" fill="none" opacity="0.3"/>
  
  <!-- Receding hairline detail -->
  <path d="M115,105 Q135,95 155,105" fill="url(#manSkin)" opacity="0.3"/>
  
  <!-- Eyebrows (fuller, masculine) -->
  <path d="M120,118 Q135,112 150,118" stroke="#2F2F2F" stroke-width="4" fill="none" stroke-linecap="round"/>
  <path d="M150,118 Q165,112 180,118" stroke="#2F2F2F" stroke-width="4" fill="none" stroke-linecap="round"/>
  
  <!-- Eyes with confidence -->
  <!-- Left eye -->
  <ellipse cx="130" cy="128" rx="14" ry="9" fill="#FFFFFF"/>
  <ellipse cx="130" cy="128" rx="9" ry="7" fill="url(#brownEyes)"/>
  <circle cx="130" cy="128" r="4" fill="#000000"/>
  <circle cx="131" cy="126" r="1.5" fill="#FFFFFF" opacity="0.9"/>
  
  <!-- Right eye -->
  <ellipse cx="170" cy="128" rx="14" ry="9" fill="#FFFFFF"/>
  <ellipse cx="170" cy="128" rx="9" ry="7" fill="url(#brownEyes)"/>
  <circle cx="170" cy="128" r="4" fill="#000000"/>
  <circle cx="171" cy="126" r="1.5" fill="#FFFFFF" opacity="0.9"/>
  
  <!-- Nose with masculine proportions -->
  <ellipse cx="150" cy="145" rx="5" ry="10" fill="#C19660" opacity="0.4"/>
  <ellipse cx="147" cy="150" rx="2" ry="4" fill="#A67C52" opacity="0.6"/>
  <ellipse cx="153" cy="150" rx="2" ry="4" fill="#A67C52" opacity="0.6"/>
  
  <!-- Mouth with slight confident smile -->
  <ellipse cx="150" cy="170" rx="10" ry="5" fill="#CD5C5C"/>
  <ellipse cx="150" cy="168" rx="8" ry="3" fill="#F08080" opacity="0.8"/>
  <path d="M142,170 Q150,173 158,170" stroke="#B22222" stroke-width="1" fill="none"/>
  
  <!-- Jaw definition -->
  <path d="M105,180 Q150,195 195,180" stroke="#A67C52" stroke-width="2" fill="none" opacity="0.3"/>
  
  <!-- Professional confidence -->
  <circle cx="260" cy="40" r="20" fill="#2E8B57"/>
  <path d="M250,40 L258,48 L270,30" stroke="white" stroke-width="3" fill="none" stroke-linecap="round"/>
  
  <!-- Subtle ear -->
  <ellipse cx="105" cy="140" rx="6" ry="12" fill="url(#manSkin)" opacity="0.8"/>
  <ellipse cx="195" cy="140" rx="6" ry="12" fill="url(#manSkin)" opacity="0.8"/>
</svg>