<svg width="200" height="200" viewBox="0 0 200 200" xmlns="http://www.w3.org/2000/svg">
  <!-- Professional woman testimonial photo style -->
  <defs>
    <radialGradient id="skinTone" cx="50%" cy="40%" r="60%">
      <stop offset="0%" style="stop-color:#F4C2A1;stop-opacity:1" />
      <stop offset="100%" style="stop-color:#E6A373;stop-opacity:1" />
    </radialGradient>
    <linearGradient id="hairGrad" x1="0%" y1="0%" x2="0%" y2="100%">
      <stop offset="0%" style="stop-color:#8B4513;stop-opacity:1" />
      <stop offset="100%" style="stop-color:#654321;stop-opacity:1" />
    </linearGradient>
  </defs>
  
  <!-- Background circle -->
  <circle cx="100" cy="100" r="100" fill="#F8F9FA"/>
  
  <!-- Hair -->
  <ellipse cx="100" cy="75" rx="45" ry="35" fill="url(#hairGrad)"/>
  
  <!-- Face -->
  <ellipse cx="100" cy="90" rx="35" ry="40" fill="url(#skinTone)"/>
  
  <!-- Eyes -->
  <ellipse cx="88" cy="85" rx="6" ry="4" fill="#4A4A4A"/>
  <ellipse cx="112" cy="85" rx="6" ry="4" fill="#4A4A4A"/>
  <circle cx="88" cy="84" r="2" fill="white"/>
  <circle cx="112" cy="84" r="2" fill="white"/>
  
  <!-- Nose -->
  <ellipse cx="100" cy="95" rx="2" ry="4" fill="#E6A373" opacity="0.6"/>
  
  <!-- Mouth (slight smile) -->
  <path d="M92,105 Q100,112 108,105" stroke="#C67C4E" stroke-width="2" fill="none" stroke-linecap="round"/>
  
  <!-- Clothing -->
  <rect x="60" y="140" width="80" height="60" fill="#2C3E50" rx="5"/>
  
  <!-- Professional blazer collar -->
  <path d="M75,140 L100,160 L125,140" fill="#34495E"/>
  
  <!-- Subtle jewelry -->
  <circle cx="100" cy="125" r="2" fill="#FFD700"/>
  
  <!-- Success indicator -->
  <circle cx="160" cy="40" r="15" fill="#27AE60"/>
  <path d="M152,40 L158,46 L168,36" stroke="white" stroke-width="2" fill="none" stroke-linecap="round"/>
</svg>